{"accessors":[{"bufferView":0,"componentType":5123,"count":111630,"max":[30968],"min":[0],"type":"SCALAR"},{"bufferView":1,"componentType":5126,"count":30969,"max":[0.5648059844970703,0.4830467402935028,0.31032711267471313],"min":[-0.5738813281059265,-0.4708937108516693,-0.3785712420940399],"type":"VEC3"},{"bufferView":2,"componentType":5126,"count":30969,"max":[1.0,1.0,1.0],"min":[-1.0,-1.0,-1.0],"type":"VEC3"},{"bufferView":3,"componentType":5126,"count":30969,"max":[1.0,0.9999971985816956,0.9999971389770508,1.0],"min":[-1.0,-0.999998927116394,-0.9999995827674866,-1.0],"type":"VEC4"},{"bufferView":4,"componentType":5126,"count":30969,"max":[367.866943359375,1.1073434352874756],"min":[4.854798316955566,-324.4968566894531],"type":"VEC2"},{"bufferView":5,"componentType":5123,"count":5424,"max":[1479],"min":[0],"type":"SCALAR"},{"bufferView":6,"componentType":5126,"count":1480,"max":[4.3491902351379395,1.9555203914642334,2.140000343322754],"min":[-6.114830017089844,-10.23550033569336,-2.1400017738342285],"type":"VEC3"},{"bufferView":7,"componentType":5126,"count":1480,"max":[0.9923667907714844,1.0,1.0],"min":[-0.9679593443870544,-1.0,-1.0],"type":"VEC3"},{"bufferView":8,"componentType":5126,"count":1480,"max":[0.9763709902763367,0.7035444378852844,1.0,1.0],"min":[-0.999984860420227,-0.9238846898078918,-1.0,1.0],"type":"VEC4"},{"bufferView":9,"componentType":5126,"count":1480,"max":[0.6231393814086914,0.5691961050033569],"min":[0.03235083818435669,0.03581017255783081],"type":"VEC2"},{"bufferView":10,"componentType":5123,"count":5424,"max":[1479],"min":[0],"type":"SCALAR"},{"bufferView":11,"componentType":5126,"count":1480,"max":[4.3491902351379395,1.9555203914642334,2.140000343322754],"min":[-6.114830017089844,-10.23550033569336,-2.1400017738342285],"type":"VEC3"},{"bufferView":12,"componentType":5126,"count":1480,"max":[0.9923667907714844,1.0,1.0],"min":[-0.9679593443870544,-1.0,-1.0],"type":"VEC3"},{"bufferView":13,"componentType":5126,"count":1480,"max":[0.9763815999031067,0.7035444378852844,1.0,1.0],"min":[-0.9999849796295166,-0.9238846898078918,-1.0,1.0],"type":"VEC4"},{"bufferView":14,"componentType":5126,"count":1480,"max":[0.5887516736984253,0.6046605110168457],"min":[0.017522871494293213,0.08893394470214844],"type":"VEC2"},{"bufferView":15,"componentType":5123,"count":58128,"max":[9980],"min":[0],"type":"SCALAR"},{"bufferView":16,"componentType":5126,"count":9981,"max":[4.364016056060791,4.364015102386475,13.704253196716309],"min":[-4.364016056060791,-4.364015102386475,0.0],"type":"VEC3"},{"bufferView":17,"componentType":5126,"count":9981,"max":[0.9999743103981018,0.9999743700027466,1.0],"min":[-0.9999720454216003,-0.9999743700027466,-1.0],"type":"VEC3"},{"bufferView":18,"componentType":5126,"count":9981,"max":[1.0,1.0,0.6329764127731323,1.0],"min":[-0.9999997019767761,-1.0,-0.6330047845840454,1.0],"type":"VEC4"},{"bufferView":19,"componentType":5126,"count":9981,"max":[0.46354201436042786,0.5808579921722412],"min":[0.01612599939107895,0.008926987648010254],"type":"VEC2"},{"bufferView":20,"componentType":5123,"count":86970,"max":[17533],"min":[0],"type":"SCALAR"},{"bufferView":21,"componentType":5126,"count":17534,"max":[0.5900697708129883,0.48176202178001404,0.31676965951919556],"min":[-0.5905020833015442,-0.4690053462982178,-0.2354460209608078],"type":"VEC3"},{"bufferView":22,"componentType":5126,"count":17534,"max":[0.9999977350234985,1.0,0.9999991655349731],"min":[-0.9999974370002747,-0.9999996423721313,-0.9999970197677612],"type":"VEC3"},{"bufferView":23,"componentType":5126,"count":17534,"max":[1.0,0.9999142289161682,0.9999901652336121,1.0],"min":[-0.9996415972709656,-0.9999860525131226,-0.9999469518661499,-1.0],"type":"VEC4"},{"bufferView":24,"componentType":5126,"count":17534,"max":[459.21771240234375,-34.819671630859375],"min":[69.85139465332031,-342.36566162109375],"type":"VEC2"},{"bufferView":25,"componentType":5123,"count":58128,"max":[9980],"min":[0],"type":"SCALAR"},{"bufferView":26,"componentType":5126,"count":9981,"max":[4.364016056060791,4.364015102386475,13.704253196716309],"min":[-4.364016056060791,-4.364015102386475,0.0],"type":"VEC3"},{"bufferView":27,"componentType":5126,"count":9981,"max":[0.9999743103981018,0.9999743700027466,1.0],"min":[-0.9999720454216003,-0.9999743700027466,-1.0],"type":"VEC3"},{"bufferView":28,"componentType":5126,"count":9981,"max":[1.0,1.0,0.6329764127731323,1.0],"min":[-0.9999997019767761,-1.0,-0.6330047249794006,1.0],"type":"VEC4"},{"bufferView":29,"componentType":5126,"count":9981,"max":[0.46354201436042786,0.5808579921722412],"min":[0.01612599939107895,0.008926987648010254],"type":"VEC2"},{"bufferView":30,"componentType":5121,"count":6,"max":[3],"min":[0],"type":"SCALAR"},{"bufferView":31,"componentType":5126,"count":4,"max":[2.4039101600646973,0.0,2.4039101600646973],"min":[-2.4039101600646973,0.0,-2.4039101600646973],"type":"VEC3"},{"bufferView":32,"componentType":5126,"count":4,"max":[0.0,1.0,-0.0],"min":[0.0,1.0,-0.0],"type":"VEC3"},{"bufferView":33,"componentType":5126,"count":4,"max":[1.0,1.0],"min":[0.0,0.0],"type":"VEC2"}],"asset":{"generator":"Verge3D for Blender","version":"2.0"},"bufferViews":[{"buffer":0,"byteLength":223260,"byteOffset":0,"target":34963},{"buffer":0,"byteLength":371628,"byteOffset":223260,"target":34962},{"buffer":0,"byteLength":371628,"byteOffset":594888,"target":34962},{"buffer":0,"byteLength":495504,"byteOffset":966516,"target":34962},{"buffer":0,"byteLength":247752,"byteOffset":1462020,"target":34962},{"buffer":0,"byteLength":10848,"byteOffset":1709772,"target":34963},{"buffer":0,"byteLength":17760,"byteOffset":1720620,"target":34962},{"buffer":0,"byteLength":17760,"byteOffset":1738380,"target":34962},{"buffer":0,"byteLength":23680,"byteOffset":1756140,"target":34962},{"buffer":0,"byteLength":11840,"byteOffset":1779820,"target":34962},{"buffer":0,"byteLength":10848,"byteOffset":1791660,"target":34963},{"buffer":0,"byteLength":17760,"byteOffset":1802508,"target":34962},{"buffer":0,"byteLength":17760,"byteOffset":1820268,"target":34962},{"buffer":0,"byteLength":23680,"byteOffset":1838028,"target":34962},{"buffer":0,"byteLength":11840,"byteOffset":1861708,"target":34962},{"buffer":0,"byteLength":116256,"byteOffset":1873548,"target":34963},{"buffer":0,"byteLength":119772,"byteOffset":1989804,"target":34962},{"buffer":0,"byteLength":119772,"byteOffset":2109576,"target":34962},{"buffer":0,"byteLength":159696,"byteOffset":2229348,"target":34962},{"buffer":0,"byteLength":79848,"byteOffset":2389044,"target":34962},{"buffer":0,"byteLength":173940,"byteOffset":2468892,"target":34963},{"buffer":0,"byteLength":210408,"byteOffset":2642832,"target":34962},{"buffer":0,"byteLength":210408,"byteOffset":2853240,"target":34962},{"buffer":0,"byteLength":280544,"byteOffset":3063648,"target":34962},{"buffer":0,"byteLength":140272,"byteOffset":3344192,"target":34962},{"buffer":0,"byteLength":116256,"byteOffset":3484464,"target":34963},{"buffer":0,"byteLength":119772,"byteOffset":3600720,"target":34962},{"buffer":0,"byteLength":119772,"byteOffset":3720492,"target":34962},{"buffer":0,"byteLength":159696,"byteOffset":3840264,"target":34962},{"buffer":0,"byteLength":79848,"byteOffset":3999960,"target":34962},{"buffer":0,"byteLength":6,"byteOffset":4079808,"target":34963},{"buffer":0,"byteLength":48,"byteOffset":4079816,"target":34962},{"buffer":0,"byteLength":48,"byteOffset":4079864,"target":34962},{"buffer":0,"byteLength":32,"byteOffset":4079912,"target":34962}],"buffers":[{"byteLength":4079944,"uri":"CotswaldsTest.bin"}],"cameras":[{"extensions":{"S8S_v3d_camera":{"controls":"ORBIT","enablePan":false,"moveSpeed":1.0,"orbitMaxDistance":4.0,"orbitMaxPolarAngle":1.3962633609771729,"orbitMaxZoom":100.0,"orbitMinDistance":2.0,"orbitMinPolarAngle":1.3962633609771729,"orbitMinZoom":0.009999999776482582,"orbitTarget":[0.0,0.44884777069091797,-0.0],"rotateSpeed":1.0,"viewportFitInitialAspect":1.0,"viewportFitType":"AUTO"}},"name":"Camera","perspective":{"aspectRatio":1.0,"yfov":0.566191554069519,"zfar":100.0,"znear":0.10000000149011612},"type":"perspective"}],"extensions":{"S8S_v3d_lights":{"lights":[{"angle":0.5366887450218201,"color":[1.0,1.0,1.0],"decay":2,"distance":14.638500868306958,"intensity":300.0,"name":"Lamp","penumbra":1.0,"profile":"blender","shadow":{"bias":-0.0005760005235671997,"cameraFar":14.638500868306958,"cameraFov":1.0733774900436401,"cameraNear":0.44999995827674866,"enabled":true,"expBias":2.5,"mapSize":512,"radius":4.0,"slopeScaledBias":2.5},"type":"spot"}]}},"extensionsUsed":["S8S_v3d_texture","S8S_v3d_materials","S8S_v3d_camera","S8S_v3d_lights","S8S_v3d_mesh","S8S_v3d_node","S8S_v3d_scene"],"images":[{"uri":"COTSWOLD_COMPTON_RASPBERRY_18cm_NEW_normal_lin_srgb.jpg"},{"uri":"COTSWOLD_COMPTON_RASPBERRY_18cm_NEW_albedo_srgb.jpg"},{"uri":"COTSWOLD_PETERSON_OSBOURNE_FEET_BACK_DIFFUSE.jpg"},{"uri":"grad.jpg"},{"uri":"environment.hdr.xz"}],"materials":[{"extensions":{"S8S_v3d_materials":{"gtaoVisible":true,"materialIndex":0,"nodeGraph":{"edges":[{"fromNode":2,"fromOutput":0,"toInput":1,"toNode":0},{"fromNode":5,"fromOutput":0,"toInput":0,"toNode":4},{"fromNode":7,"fromOutput":0,"toInput":0,"toNode":1},{"fromNode":1,"fromOutput":0,"toInput":1,"toNode":5},{"fromNode":3,"fromOutput":0,"toInput":2,"toNode":5},{"fromNode":6,"fromOutput":0,"toInput":0,"toNode":5},{"fromNode":7,"fromOutput":0,"toInput":0,"toNode":3},{"fromNode":0,"fromOutput":0,"toInput":2,"toNode":1},{"fromNode":9,"fromOutput":2,"toInput":0,"toNode":8},{"fromNode":8,"fromOutput":0,"toInput":0,"toNode":7}],"nodes":[{"inputs":[1.0,[0.5,0.5,1.0,1.0]],"is_active_output":false,"name":"Normal Map","outputs":[[0.0,0.0,0.0]],"type":"NORMAL_MAP_BL","uvLayer":""},{"inputs":[[0.272294819355011,0.800039529800415,0.08254627883434296,1.0],0.30000001192092896,[0.0,0.0,0.0]],"is_active_output":false,"name":"Diffuse BSDF","outputs":[[0,0,0,0]],"type":"BSDF_DIFFUSE_BL"},{"alphaMode":"STRAIGHT","inputs":[[0.0,0.0,0.0]],"is_active_output":false,"name":"Image Texture.001","outputs":[[0.0,0.0,0.0,0.0],0.0],"projection":"FLAT","projectionBlend":0.0,"texture":0,"type":"TEX_IMAGE_BL"},{"inputs":[[0.800000011920929,0.800000011920929,0.800000011920929,1.0],0.8230769634246826,0.19999998807907104,0.0,[0.0,0.0,0.0],[0.0,0.0,0.0]],"is_active_output":false,"name":"Glossy BSDF","outputs":[[0,0,0,0]],"type":"BSDF_GLOSSY_BL"},{"inputs":[[0,0,0,0],[0,0,0,0],[0.0,0.0,0.0],0.0],"is_active_output":true,"name":"Material Output","outputs":[],"type":"OUTPUT_MATERIAL_BL"},{"inputs":[0.5,[0,0,0,0],[0,0,0,0]],"is_active_output":false,"name":"Mix Shader","outputs":[[0,0,0,0]],"type":"MIX_SHADER_BL"},{"inputs":[1.7500001192092896,[0.0,0.0,0.0]],"is_active_output":false,"name":"Fresnel","outputs":[0.0],"type":"FRESNEL_BL"},{"alphaMode":"STRAIGHT","inputs":[[0.0,0.0,0.0]],"is_active_output":false,"name":"Image Texture","outputs":[[0.0,0.0,0.0,0.0],0.0],"projection":"FLAT","projectionBlend":0.0,"texture":1,"type":"TEX_IMAGE_BL"},{"inputs":[[0.0,0.0,0.0],[0.0,0.0,0.0],[0.0,0.0,0.0],[0.5999999046325684,0.5999999046325684,0.5999999046325684]],"is_active_output":false,"name":"Mapping","outputs":[[0.0,0.0,0.0]],"type":"MAPPING_BL","vectorType":"POINT"},{"inputs":[],"is_active_output":false,"name":"Texture Coordinate","object":-1,"outputs":[[0.0,0.0,0.0],[0.0,0.0,0.0],[0.0,0.0,0.0],[0.0,0.0,0.0],[0.0,0.0,0.0],[0.0,0.0,0.0],[0.0,0.0,0.0]],"type":"TEX_COORD_BL"}]},"useCastShadows":true}},"name":"Fabric"},{"extensions":{"S8S_v3d_materials":{"gtaoVisible":true,"materialIndex":0,"nodeGraph":{"edges":[{"fromNode":3,"fromOutput":0,"toInput":1,"toNode":0},{"fromNode":6,"fromOutput":0,"toInput":0,"toNode":5},{"fromNode":2,"fromOutput":0,"toInput":0,"toNode":1},{"fromNode":1,"fromOutput":0,"toInput":1,"toNode":6},{"fromNode":4,"fromOutput":0,"toInput":2,"toNode":6},{"fromNode":7,"fromOutput":0,"toInput":0,"toNode":6},{"fromNode":2,"fromOutput":0,"toInput":0,"toNode":4},{"fromNode":0,"fromOutput":0,"toInput":2,"toNode":1}],"nodes":[{"inputs":[1.0,[0.5,0.5,1.0,1.0]],"is_active_output":false,"name":"Normal Map","outputs":[[0.0,0.0,0.0]],"type":"NORMAL_MAP_BL","uvLayer":""},{"inputs":[[0.272294819355011,0.800039529800415,0.08254627883434296,1.0],0.1538461595773697,[0.0,0.0,0.0]],"is_active_output":false,"name":"Diffuse BSDF","outputs":[[0,0,0,0]],"type":"BSDF_DIFFUSE_BL"},{"alphaMode":"STRAIGHT","inputs":[[0.0,0.0,0.0]],"is_active_output":false,"name":"Image Texture","outputs":[[0.0,0.0,0.0,0.0],0.0],"projection":"FLAT","projectionBlend":0.0,"texture":2,"type":"TEX_IMAGE_BL"},{"alphaMode":"STRAIGHT","inputs":[[0.0,0.0,0.0]],"is_active_output":false,"name":"Image Texture.001","outputs":[[0.0,0.0,0.0,0.0],0.0],"projection":"FLAT","projectionBlend":0.0,"texture":0,"type":"TEX_IMAGE_BL"},{"inputs":[[0.800000011920929,0.800000011920929,0.800000011920929,1.0],0.6076923608779907,0.19999998807907104,0.0,[0.0,0.0,0.0],[0.0,0.0,0.0]],"is_active_output":false,"name":"Glossy BSDF","outputs":[[0,0,0,0]],"type":"BSDF_GLOSSY_BL"},{"inputs":[[0,0,0,0],[0,0,0,0],[0.0,0.0,0.0],0.0],"is_active_output":true,"name":"Material Output","outputs":[],"type":"OUTPUT_MATERIAL_BL"},{"inputs":[0.5,[0,0,0,0],[0,0,0,0]],"is_active_output":false,"name":"Mix Shader","outputs":[[0,0,0,0]],"type":"MIX_SHADER_BL"},{"inputs":[1.7500001192092896,[0.0,0.0,0.0]],"is_active_output":false,"name":"Fresnel","outputs":[0.0],"type":"FRESNEL_BL"}]},"useCastShadows":true}},"name":"Leg-dark"},{"alphaMode":"BLEND","doubleSided":false,"extensions":{"S8S_v3d_materials":{"depthWrite":false,"gtaoVisible":false,"materialIndex":0,"nodeGraph":{"edges":[{"fromNode":2,"fromOutput":0,"toInput":2,"toNode":3},{"fromNode":1,"fromOutput":0,"toInput":1,"toNode":3},{"fromNode":3,"fromOutput":0,"toInput":0,"toNode":0},{"fromNode":4,"fromOutput":0,"toInput":0,"toNode":3}],"nodes":[{"inputs":[[0,0,0,0],[0,0,0,0],[0.0,0.0,0.0],0.0],"is_active_output":true,"name":"Material Output","outputs":[],"type":"OUTPUT_MATERIAL_BL"},{"inputs":[[1.0,1.0,1.0,1.0],0.0,[0.0,0.0,0.0]],"is_active_output":false,"name":"Diffuse BSDF","outputs":[[0,0,0,0]],"type":"BSDF_DIFFUSE_BL"},{"inputs":[[1.0,1.0,1.0,1.0]],"is_active_output":false,"name":"Transparent BSDF","outputs":[[0,0,0,0]],"type":"BSDF_TRANSPARENT_BL"},{"inputs":[0.5,[0,0,0,0],[0,0,0,0]],"is_active_output":false,"name":"Mix Shader","outputs":[[0,0,0,0]],"type":"MIX_SHADER_BL"},{"alphaMode":"STRAIGHT","inputs":[[0.0,0.0,0.0]],"is_active_output":false,"name":"Image Texture","outputs":[[0.0,0.0,0.0,0.0],0.0],"projection":"FLAT","projectionBlend":0.0,"texture":4,"type":"TEX_IMAGE_BL"}]},"renderSide":"FRONT","useCastShadows":true}},"name":"Material"},{"extensions":{"S8S_v3d_materials":{"dithering":true,"gtaoVisible":true,"materialIndex":0,"nodeGraph":{"edges":[{"fromNode":3,"fromOutput":0,"toInput":0,"toNode":2},{"fromNode":6,"fromOutput":0,"toInput":6,"toNode":0},{"fromNode":1,"fromOutput":0,"toInput":0,"toNode":0},{"fromNode":0,"fromOutput":2,"toInput":0,"toNode":3},{"fromNode":4,"fromOutput":0,"toInput":7,"toNode":0},{"fromNode":5,"fromOutput":0,"toInput":0,"toNode":4},{"fromNode":7,"fromOutput":0,"toInput":0,"toNode":6}],"nodes":[{"blendType":"MIX","clampFactor":false,"clampResult":false,"dataType":"RGBA","factorMode":"UNIFORM","inputs":[0.5,[0.5,0.5,0.5],0.0,0.0,[0.0,0.0,0.0],[0.0,0.0,0.0],[0.5,0.5,0.5,1.0],[1.0,1.0,1.0,1.0],0,0],"is_active_output":false,"name":"Mix","outputs":[0.0,[0.0,0.0,0.0],[0.0,0.0,0.0,0.0],0],"type":"MIX_BL"},{"inputs":[],"is_active_output":false,"name":"Light Path","outputs":[0.0,0.0,0.0,0.0,0.0,0.0,0.0,0.0,0.0,0.0,0.0,0.0,0.0],"type":"LIGHT_PATH_BL"},{"inputs":[[0,0,0,0],[0,0,0,0]],"is_active_output":true,"name":"World Output","outputs":[],"type":"OUTPUT_WORLD_BL"},{"inputs":[[0.05087608844041824,0.05087608844041824,0.05087608844041824,1.0],2.000000238418579],"is_active_output":false,"name":"Background","outputs":[[0,0,0,0]],"type":"BACKGROUND_BL"},{"inputs":[0.5,5.599999904632568,0.5],"is_active_output":false,"name":"Math","operation":"MULTIPLY","outputs":[0.0],"type":"MATH_BL","useClamp":false},{"inputs":[],"is_active_output":false,"name":"RGB","outputs":[[1.0,1.0,1.0,1.0]],"type":"RGB_BL"},{"inputs":[[1.0,1.0,1.0,1.0],-1.8000009059906006,0.0],"is_active_output":false,"name":"Brightness/Contrast","outputs":[[0.0,0.0,0.0,0.0]],"type":"BRIGHTCONTRAST_BL"},{"inputs":[[0.0,0.0,0.0]],"is_active_output":false,"name":"Environment Texture","outputs":[[0.0,0.0,0.0,0.0]],"projection":"EQUIRECTANGULAR","texture":5,"type":"TEX_ENVIRONMENT_BL"}]},"useCastShadows":true}},"name":"Verge3D_Environment_World"}],"meshes":[{"extensions":{"S8S_v3d_mesh":{"colorLayers":{},"uvLayers":{"UVChannel_1":"TEXCOORD_0"}}},"name":"Mesh.002","primitives":[{"attributes":{"NORMAL":2,"POSITION":1,"TANGENT":3,"TEXCOORD_0":4},"indices":0,"material":0,"mode":4}]},{"extensions":{"S8S_v3d_mesh":{"colorLayers":{},"uvLayers":{"Attribute":"TEXCOORD_0"}}},"name":"Mesh.004","primitives":[{"attributes":{"NORMAL":7,"POSITION":6,"TANGENT":8,"TEXCOORD_0":9},"indices":5,"material":1,"mode":4}]},{"extensions":{"S8S_v3d_mesh":{"colorLayers":{},"uvLayers":{"Attribute":"TEXCOORD_0"}}},"name":"Mesh.005","primitives":[{"attributes":{"NORMAL":12,"POSITION":11,"TANGENT":13,"TEXCOORD_0":14},"indices":10,"material":1,"mode":4}]},{"extensions":{"S8S_v3d_mesh":{"colorLayers":{},"uvLayers":{"UVChannel_1":"TEXCOORD_0"}}},"name":"Mesh.006","primitives":[{"attributes":{"NORMAL":17,"POSITION":16,"TANGENT":18,"TEXCOORD_0":19},"indices":15,"material":1,"mode":4}]},{"extensions":{"S8S_v3d_mesh":{"colorLayers":{},"uvLayers":{"UVChannel_1":"TEXCOORD_0"}}},"name":"Mesh.007","primitives":[{"attributes":{"NORMAL":22,"POSITION":21,"TANGENT":23,"TEXCOORD_0":24},"indices":20,"material":0,"mode":4}]},{"extensions":{"S8S_v3d_mesh":{"colorLayers":{},"uvLayers":{"UVChannel_1":"TEXCOORD_0"}}},"name":"Mesh.008","primitives":[{"attributes":{"NORMAL":27,"POSITION":26,"TANGENT":28,"TEXCOORD_0":29},"indices":25,"material":1,"mode":4}]},{"extensions":{"S8S_v3d_mesh":{"colorLayers":{},"uvLayers":{"UVMap":"TEXCOORD_0"}}},"name":"Plane","primitives":[{"attributes":{"NORMAL":32,"POSITION":31,"TEXCOORD_0":33},"indices":30,"material":2,"mode":4}]}],"nodes":[{"extensions":{"S8S_v3d_node":{"frustumCulling":true,"groupNames":["Legs","Range1-Chair-single"],"hidden":false,"hidpiCompositing":false,"objectColor":[0.800000011920929,0.800000011920929,0.800000011920929,1.0],"objectIndex":0,"renderOrder":0,"useShadows":true}},"mesh":1,"name":"PETERSON_OSBOURNE_FEET_BACK","rotation":[-1.4048569418889656e-08,0.7660444378852844,-1.674243499394379e-08,0.6427876353263855],"scale":[0.01145125087350607,0.011451249942183495,0.01145125087350607],"translation":[-0.4959316551685333,0.11717496812343597,-0.3271850645542145]},{"extensions":{"S8S_v3d_node":{"frustumCulling":true,"groupNames":["Range1-Chair-single"],"hidden":false,"hidpiCompositing":false,"objectColor":[0.800000011920929,0.800000011920929,0.800000011920929,1.0],"objectIndex":0,"renderOrder":0,"useShadows":true}},"mesh":4,"name":"chair.001","rotation":[0.7210575342178345,0.0,-0.0,0.6928752064704895],"translation":[0.00021606683731079102,0.4420936405658722,-0.008950233459472656]},{"extensions":{"S8S_v3d_node":{"frustumCulling":true,"groupNames":["Legs","Range1-Chair-single"],"hidden":false,"hidpiCompositing":false,"objectColor":[0.800000011920929,0.800000011920929,0.800000011920929,1.0],"objectIndex":0,"renderOrder":0,"useShadows":true}},"mesh":5,"name":"COTSWOLD_PETERSON_FEET_FRONT_006","rotation":[-0.7017024159431458,-0.08725711703300476,-0.08725713193416595,0.7017022967338562],"scale":[0.010292118415236473,0.010292118415236473,0.010292119346559048],"translation":[-0.49699413776397705,-0.0002310425043106079,0.3908381164073944]},{"camera":0,"extensions":{"S8S_v3d_node":{"frustumCulling":true,"groupNames":["LightsCamera"],"hidden":false,"hidpiCompositing":false,"objectColor":[0.0,0.0,0.0,0.0],"objectIndex":0,"renderOrder":0}},"name":"Camera","rotation":[-0.09908033907413483,-0.20446103811264038,-0.02080688066780567,0.973625123500824],"scale":[0.9999999403953552,0.9999998807907104,0.9999999403953552],"translation":[-1.4487779140472412,1.2140858173370361,3.3419947624206543]},{"extensions":{"S8S_v3d_node":{"frustumCulling":true,"groupNames":["LightsCamera"],"hidden":false,"hidpiCompositing":false,"objectColor":[1.0,1.0,1.0,1.0],"objectIndex":0,"renderOrder":0,"useShadows":true}},"mesh":6,"name":"Floor"},{"extensions":{"S8S_v3d_node":{"frustumCulling":true,"groupNames":["Range1-Chair-single"],"hidden":false,"hidpiCompositing":false,"objectColor":[0.800000011920929,0.800000011920929,0.800000011920929,1.0],"objectIndex":0,"renderOrder":0,"useShadows":true}},"mesh":0,"name":"chair","rotation":[0.7210575342178345,0.0,-0.0,0.6928752064704895],"translation":[0.00021606683731079102,0.4420936405658722,-0.008950233459472656]},{"extensions":{"S8S_v3d_node":{"frustumCulling":true,"groupNames":["Range1-Chair-single"],"hidden":false,"hidpiCompositing":false,"objectColor":[1.0,1.0,1.0,1.0],"objectIndex":0,"renderOrder":0}},"name":"Empty","translation":[0.0,0.44884777069091797,-0.0]},{"extensions":{"S8S_v3d_node":{"frustumCulling":true,"groupNames":["Legs","Range1-Chair-single"],"hidden":false,"hidpiCompositing":false,"objectColor":[0.800000011920929,0.800000011920929,0.800000011920929,1.0],"objectIndex":0,"renderOrder":0,"useShadows":true}},"mesh":2,"name":"PETERSON_OSBOURNE_FEET_BACK001","rotation":[0.6427876353263855,-5.249292485132173e-07,0.7660444378852844,2.277901671732252e-07],"scale":[-0.01145125087350607,-0.011451249942183495,-0.01145125087350607],"translation":[0.49431082606315613,0.11717496812343597,-0.3271850347518921]},{"extensions":{"S8S_v3d_node":{"frustumCulling":true,"groupNames":["Legs","Range1-Chair-single"],"hidden":false,"hidpiCompositing":false,"objectColor":[0.800000011920929,0.800000011920929,0.800000011920929,1.0],"objectIndex":0,"renderOrder":0,"useShadows":true}},"mesh":3,"name":"COTSWOLD_PETERSON_FEET_FRONT_001","rotation":[-0.27059799432754517,-0.6532814502716064,-0.653281569480896,0.2705979645252228],"scale":[0.010292119346559048,0.010292119346559048,0.010292119346559048],"translation":[0.4971228837966919,-0.0002310425043106079,0.3908381164073944]},{"extensions":{"S8S_v3d_lights":{"light":0},"S8S_v3d_node":{"frustumCulling":true,"groupNames":["LightsCamera"],"hidden":false,"hidpiCompositing":false,"objectColor":[0.0,0.0,0.0,0.0],"objectIndex":0,"renderOrder":0}},"name":"Lamp","rotation":[-0.63429194688797,0.44776850938796997,0.579058051109314,0.2487345188856125],"scale":[1.0,0.9999998807907104,0.9999998807907104],"translation":[-1.825834035873413,3.387836456298828,-0.6287392973899841]}],"samplers":[{}],"scene":0,"scenes":[{"extensions":{"S8S_v3d_scene":{"aaMethod":"AUTO","iblEnvironmentMode":"PROBE","physicallyCorrectLights":true,"pmremMaxTileSize":256,"postprocessing":[{"bentNormals":true,"bounceApprox":false,"distance":0.20000001788139343,"factor":1.0,"precision":0.5175426006317139,"type":"gtao"}],"shadowMap":{"esmDistanceScale":1.0,"renderReverseSided":false,"renderSingleSided":true,"type":"PCFPOISSON"},"toneMapping":{"type":"filmicBlender"},"useHDR":true,"worldMaterial":3}},"extras":{"animFrameRate":30,"coordSystem":"Z_UP_RIGHT"},"name":"Scene","nodes":[5,6,1,0,7,8,2,3,4,9]}],"textures":[{"extensions":{"S8S_v3d_texture":{"colorSpace":"non-color"}},"name":"COTSWOLD_COMPTON_RASPBERRY_18cm_NEW_normal_lin_srgb.jpg","sampler":0,"source":0},{"extensions":{"S8S_v3d_texture":{"colorSpace":"srgb"}},"name":"COTSWOLD_COMPTON_RASPBERRY_18cm_NEW_albedo_srgb.jpg","sampler":0,"source":1},{"extensions":{"S8S_v3d_texture":{"colorSpace":"srgb"}},"name":"COTSWOLD_PETERSON_OSBOURNE_FEET_BACK_DIFFUSE.jpg","sampler":0,"source":2},{"extensions":{"S8S_v3d_texture":{"colorSpace":"non-color"}},"name":"COTSWOLD_COMPTON_RASPBERRY_18cm_NEW_normal_lin_srgb.jpg","sampler":0,"source":0},{"extensions":{"S8S_v3d_texture":{"colorSpace":"srgb"}},"name":"grad.jpg","sampler":0,"source":3},{"extensions":{"S8S_v3d_texture":{"colorSpace":"linear rec.709","source":4}},"name":"environment.hdr.001","sampler":0}]}
